<svg xmlns="http://www.w3.org/2000/svg"  viewBox="0 0 544 290">
  <g id="Group_2" data-name="Group 2" transform="translate(-34 -57)">
    <rect id="Rectangle_1" data-name="Rectangle 1" width="496" height="246" transform="translate(82 57)" fill="#f9f9f9"/>
    <g id="Group_1" data-name="Group 1" transform="translate(34 72.554)">
      <rect id="Rectangle_2" data-name="Rectangle 2" width="485" height="41" transform="translate(30 0.446)" fill="#f2f2f2"/>
      <ellipse id="Ellipse_1" data-name="Ellipse 1" cx="12.5" cy="12" rx="12.5" ry="12" transform="translate(0 9.446)" fill="#f2f2f2"/>
    </g>
    <g id="Group_1-2" data-name="Group 1" transform="translate(34 130.882)">
      <rect id="Rectangle_2-2" data-name="Rectangle 2" width="485" height="41" transform="translate(30 0.118)" fill="#f2f2f2"/>
      <circle id="Ellipse_1-2" data-name="Ellipse 1" cx="12.5" cy="12.5" r="12.5" transform="translate(0 9.118)" fill="#f2f2f2"/>
    </g>
    <g id="Group_1-3" data-name="Group 1" transform="translate(34 189.209)">
      <rect id="Rectangle_2-3" data-name="Rectangle 2" width="485" height="42" transform="translate(30 -0.209)" fill="#f2f2f2"/>
      <circle id="Ellipse_1-3" data-name="Ellipse 1" cx="12.5" cy="12.5" r="12.5" transform="translate(0 8.791)" fill="#f2f2f2"/>
    </g>
    <g id="Group_1-4" data-name="Group 1" transform="translate(34 247.537)">
      <rect id="Rectangle_2-4" data-name="Rectangle 2" width="485" height="41" transform="translate(30 0.463)" fill="#f2f2f2"/>
      <ellipse id="Ellipse_1-4" data-name="Ellipse 1" cx="12.5" cy="12" rx="12.5" ry="12" transform="translate(0 9.463)" fill="#f2f2f2"/>
    </g>
    <g id="Group_1-5" data-name="Group 1" transform="translate(34 305.864)">
      <rect id="Rectangle_2-5" data-name="Rectangle 2" width="485" height="41" transform="translate(30 0.136)" fill="#f2f2f2"/>
      <circle id="Ellipse_1-5" data-name="Ellipse 1" cx="12.5" cy="12.5" r="12.5" transform="translate(0 9.136)" fill="#f2f2f2"/>
    </g>
  </g>
</svg>
